<svg width="107" height="105" viewBox="0 0 107 105" fill="none" xmlns="http://www.w3.org/2000/svg">
<path d="M68.2862 0.395763C67.2237 0.874931 65.8279 2.43743 65.5154 3.49993C65.3696 3.95826 65.2654 5.2916 65.2654 6.45826V8.6041L61.7862 5.18743C57.9529 1.4166 56.9946 0.770763 54.5571 0.354095C53.5362 0.187431 52.8279 0.187431 51.8071 0.354095C48.8696 0.854095 49.3696 0.437431 33.8487 15.9166C26.0154 23.7083 19.4737 30.3749 19.2862 30.7083C18.9529 31.3541 19.0571 32.1874 19.5779 32.7499C20.0154 33.2499 21.1404 33.4374 21.7446 33.1249C22.0154 32.9791 28.7237 26.4374 36.6196 18.5624C51.7029 3.52077 51.4529 3.74993 53.1821 3.74993C54.9112 3.74993 54.6612 3.52077 69.7446 18.5624C77.6612 26.4374 84.3487 32.9791 84.6196 33.1249C85.2237 33.4374 86.3487 33.2499 86.7862 32.7499C87.3071 32.1874 87.4112 31.3541 87.0571 30.7083C86.8904 30.3749 85.2029 28.5624 83.3071 26.6666L79.8487 23.2291V13.9374C79.8487 3.49993 79.8071 3.14576 78.4321 1.62493C77.1404 0.187431 76.5154 -6.86646e-05 72.5571 -6.86646e-05C69.6612 -6.86646e-05 68.9946 0.0624313 68.2862 0.395763ZM75.0362 3.56243C76.2862 3.99993 76.3071 4.20827 76.3071 12.3333V19.6874L72.5571 15.9374L68.8071 12.1874V8.4791C68.8071 6.2291 68.8904 4.6041 69.0362 4.3541C69.1612 4.1041 69.5571 3.7916 69.9112 3.64576C70.7237 3.2916 74.0987 3.2291 75.0362 3.56243Z" fill="white"/>
<path d="M23.7862 34.5625L23.2862 34.9583L23.2237 47.4792L23.1821 60H21.4529C19.9112 60 19.6612 60.0625 19.2654 60.4792C18.6196 61.1667 18.6612 62.2917 19.3487 62.9375L19.8904 63.4375H53.1821H86.4737L87.0154 62.9375C87.7237 62.2708 87.7654 61.1042 87.0779 60.4583C86.6612 60.0625 86.3487 60 84.7862 60H82.9737V47.625C82.9737 35.4375 82.9737 35.25 82.5362 34.7083C82.2029 34.2708 81.9321 34.1667 81.2029 34.1667C80.4737 34.1667 80.2029 34.2708 79.8696 34.7083C79.4321 35.25 79.4321 35.4375 79.4321 47.625V60H72.5571H65.7029L65.6404 49.7292L65.5779 39.4792L64.9946 38.2917C64.3696 37.0208 63.4529 36.1042 62.0779 35.375C61.2237 34.8958 61.0362 34.8958 53.5154 34.8333C44.8487 34.7708 44.5571 34.7917 42.8904 36.2708C42.3696 36.7292 41.7029 37.625 41.3696 38.2917L40.7862 39.4792L40.7237 49.7292L40.6612 60H33.7029H26.7237V47.5417V35.0625L26.2446 34.625C25.6404 34.0417 24.4529 34.0208 23.7862 34.5625ZM60.9946 38.9583C62.1404 40 62.1404 40.0417 62.1404 50.4167V60H53.1821H44.2237V50.4167C44.2237 39.8125 44.2446 39.6042 45.5362 38.75C46.1821 38.3542 46.4529 38.3333 53.3279 38.375L60.4321 38.4375L60.9946 38.9583Z" fill="white"/>
<path d="M1.86957 44.4583C0.807071 44.8541 0.557071 45.1041 0.161238 46.1041C-0.151262 46.9374 -0.109596 47.5833 1.2029 60.2083C1.9529 67.4791 2.68207 73.9166 2.84874 74.5208C3.53624 77.0624 5.2654 79.7291 7.18207 81.1874C7.78624 81.6666 10.4946 83.4583 13.2029 85.1874C18.4737 88.5624 19.0362 88.7916 20.0779 87.9374C20.6612 87.4791 20.7654 86.0416 20.2654 85.5416C20.0987 85.3749 17.7446 83.8124 15.0571 82.1041C12.3696 80.3749 9.61957 78.4999 8.97374 77.9166C7.6404 76.7291 6.47374 74.6666 6.11957 72.8749C5.8279 71.2916 3.49457 47.9583 3.61957 47.8124C3.84874 47.5833 5.8279 48.3541 6.55707 48.9583C7.8279 49.9999 8.05707 50.8333 9.41124 58.5833L10.6821 65.8333L10.3487 67.1041C9.8279 69.1666 10.3279 71.2708 11.7029 72.6249C12.2446 73.1874 22.3071 79.8333 23.7654 80.6041C25.1821 81.3541 26.8696 79.5624 26.0987 78.1249C25.9946 77.9166 23.3904 76.1249 20.3279 74.1458C17.2446 72.1874 14.5779 70.4166 14.3696 70.2499C14.1821 70.0833 13.9112 69.5833 13.7862 69.1458C13.5779 68.4999 13.5987 68.2499 13.9321 67.5833C14.3904 66.6458 15.4737 65.9374 16.1612 66.1249C16.4112 66.1874 18.0362 67.1458 19.7446 68.2291C23.2029 70.4374 24.7237 71.0416 27.8487 71.4374C30.3487 71.7708 31.2862 72.1666 34.5362 74.2708C38.7862 76.9999 39.9529 78.5416 41.0154 82.8333C41.6612 85.3958 41.9737 85.8333 43.1821 85.8333C44.9529 85.8333 45.2237 84.6666 44.3279 81.2499C43.4529 78.0208 42.4321 76.1874 40.3487 74.0833C39.3696 73.1041 34.3071 69.7083 32.8696 69.0624C31.7862 68.5624 29.4737 68.0208 27.5987 67.8124C25.8279 67.6249 24.4946 66.9999 21.2029 64.8958C17.7654 62.7083 16.6404 62.3124 14.8904 62.6874C14.3487 62.7916 13.8904 62.8541 13.8487 62.8124C13.8071 62.7708 13.2654 59.8749 12.6404 56.3749C11.7237 51.1458 11.4112 49.7916 10.9112 48.7916C9.80707 46.5833 7.43207 44.8749 4.84874 44.3749C3.43207 44.1041 2.8279 44.1249 1.86957 44.4583Z" fill="white"/>
<path d="M101.349 44.3749C98.9112 44.8958 96.6612 46.5624 95.5154 48.7291C94.9529 49.7708 94.7029 50.7708 93.8071 55.9583C93.2237 59.2708 92.7029 62.1666 92.6612 62.4166C92.5779 62.8333 92.4946 62.8541 91.5571 62.6666C89.7654 62.3124 88.6404 62.6874 85.1612 64.8958C81.5987 67.1666 80.5571 67.6041 78.1196 67.9166C74.7862 68.3333 73.2237 68.9791 69.2654 71.6458C64.8904 74.5833 63.2446 76.7708 62.0154 81.3333C61.1404 84.6666 61.4321 85.8333 63.1821 85.8333C64.3696 85.8333 64.7029 85.3749 65.2654 83.1041C65.8487 80.6041 66.8696 78.4791 68.0779 77.1249C69.1404 75.9583 73.9946 72.7083 75.6404 72.0833C76.1821 71.8749 77.4321 71.5833 78.4112 71.4583C81.8904 70.9999 83.0571 70.5416 86.2029 68.4999C90.0571 65.9999 90.1821 65.9583 91.0987 66.2291C91.7446 66.4166 91.9946 66.6458 92.3487 67.3958C92.8696 68.4583 92.7862 69.1874 92.0779 70.0416C91.8279 70.3333 89.0987 72.1874 86.0362 74.1666C82.9737 76.1458 80.3696 77.9374 80.2654 78.1458C79.4946 79.5624 81.1821 81.3541 82.5987 80.6041C84.0987 79.8124 93.8279 73.3749 94.4737 72.7708C95.5571 71.7291 96.1612 70.2083 96.1821 68.5416C96.2029 67.7916 96.0779 66.8958 95.9321 66.5624C95.7029 65.9999 95.8071 65.1249 96.8279 59.2708C98.2237 51.1666 98.2862 50.9374 98.9529 49.9374C99.5571 49.0624 100.932 48.1666 102.036 47.9166C102.724 47.7708 102.765 47.7916 102.765 48.3124C102.765 48.6041 102.203 54.3124 101.515 60.9791C100.203 73.8124 100.12 74.2499 98.8279 76.2708C97.9529 77.6666 96.7237 78.6249 91.3071 82.0833C88.6196 83.8124 86.2654 85.3749 86.0987 85.5416C85.5987 86.0416 85.7029 87.4791 86.2862 87.9374C87.3279 88.7916 87.8904 88.5624 93.1612 85.1874C95.8696 83.4583 98.5779 81.6666 99.1821 81.1874C101.099 79.7291 102.828 77.0624 103.515 74.5208C103.682 73.9166 104.411 67.4583 105.161 60.1458L106.536 46.8749L106.12 45.9583C105.87 45.3541 105.474 44.9166 105.057 44.6874C104.245 44.2708 102.557 44.1249 101.349 44.3749Z" fill="white"/>
<path d="M22.8696 89.6667C21.6196 90.25 20.8487 91.0417 20.2862 92.2917C19.8904 93.1667 19.8487 93.6458 19.8487 98.6875C19.8487 103.896 19.8696 104.188 20.2654 104.583C20.6821 105 20.9529 105 35.0362 105H49.4112L49.8279 104.458C50.2446 103.938 50.2654 103.667 50.2446 98.6667C50.2446 95.2083 50.1404 93.2083 49.9946 92.7708C49.5154 91.4792 48.4737 90.2917 47.3279 89.7292L46.2237 89.1667H35.0779H23.9112L22.8696 89.6667ZM45.0987 92.7083C45.5154 92.8333 46.0571 93.1667 46.3071 93.4792C46.6821 93.9792 46.7237 94.2917 46.7237 97.8333V101.667H34.9321H23.1404L23.2237 97.8542C23.2862 93.6042 23.4321 93.1042 24.7029 92.7292C25.6404 92.4583 44.1196 92.4375 45.0987 92.7083Z" fill="white"/>
<path d="M59.0362 89.7292C57.8904 90.2917 56.8487 91.4792 56.3696 92.7708C56.2237 93.2083 56.1196 95.2083 56.1196 98.6667C56.0987 103.667 56.1196 103.938 56.5362 104.458L56.9529 105H71.3279C85.4112 105 85.6821 105 86.0987 104.583C86.4946 104.188 86.5154 103.896 86.5154 98.6875C86.5154 93.375 86.4946 93.2083 86.0154 92.1875C85.4321 90.9375 84.6404 90.1667 83.3904 89.6042C82.4946 89.1875 82.0779 89.1667 71.2862 89.1667H60.1404L59.0362 89.7292ZM82.0571 92.8958C82.9946 93.5208 83.0779 93.8958 83.1404 97.8542L83.2237 101.667H71.4321H59.6404V97.8333C59.6404 94.2917 59.6612 93.9792 60.0779 93.4583C60.3071 93.1667 60.8071 92.8333 61.1612 92.7292C61.5362 92.6042 66.0362 92.5417 71.7237 92.5625C79.8071 92.6042 81.7029 92.6667 82.0571 92.8958Z" fill="white"/>
</svg>
