<svg width="116" height="116" viewBox="0 0 116 116" fill="none" xmlns="http://www.w3.org/2000/svg">
<path d="M51.9133 0.377396C45.5765 1.40624 39.2164 4.09528 34.5398 7.69624L33.394 8.58479L31.1025 7.81316C27.4548 6.55048 24.0643 5.87238 20.9076 5.70869C15.5061 5.45148 12.0688 6.45695 9.37981 9.1226C7.08828 11.3674 6.01267 13.729 5.63854 17.3768C5.12412 22.4742 6.83107 29.9568 10.1047 36.9482C10.736 38.2811 11.2504 39.497 11.2504 39.6607C11.2504 39.8243 11.04 40.1283 10.7828 40.3622C9.42657 41.5781 8.95891 45.4362 9.87085 47.8447C10.5256 49.575 12.2091 51.2586 13.9395 51.9133C15.5061 52.4979 17.9847 52.568 19.4345 52.0536C19.9723 51.8665 20.4633 51.7029 20.4867 51.7029C20.5334 51.7029 20.931 52.6849 21.3986 53.8541C21.8663 55.0466 22.4508 56.3794 22.6847 56.8237L23.1056 57.5954L20.7205 60.9625C12.139 73.0047 6.69077 84.8131 5.73207 93.4881C5.59177 94.8209 5.49824 95.008 4.82014 95.4289C3.81467 96.0602 2.10772 97.8841 1.38285 99.1702C-0.557928 102.514 -0.441014 107.588 1.64006 110.838C3.0898 113.083 5.49824 114.907 7.95345 115.632C9.61364 116.123 12.8872 116.123 14.5474 115.632C16.839 114.954 19.4812 113.036 20.627 111.189C20.931 110.675 21.2817 110.394 21.6324 110.394C22.825 110.394 26.7299 109.599 29.2553 108.827C32.6224 107.822 36.2468 106.349 40.0582 104.431L43.0278 102.935L43.285 104.268C43.4253 104.992 44.0333 106.583 44.5945 107.775C46.4417 111.61 50.2297 114.696 54.2984 115.655C56.2158 116.099 59.8167 116.099 61.7341 115.655C65.8027 114.696 69.5908 111.61 71.438 107.775C71.9992 106.583 72.6072 105.016 72.7475 104.291L73.0047 102.982L76.2081 104.572C84.1583 108.5 90.7289 110.394 96.4577 110.394C101.181 110.394 104.268 109.295 106.793 106.793C108.289 105.296 108.968 104.174 109.739 101.976C110.651 99.3338 110.675 94.704 109.809 90.4016C109.272 87.7593 107.284 81.9837 105.928 79.0842C105.296 77.7514 104.782 76.5589 104.782 76.442C104.782 76.3251 105.039 75.8808 105.367 75.4599C106.232 74.3375 106.653 72.8878 106.653 71.0873C106.653 66.6212 103.566 63.6281 98.9597 63.6281H97.1358L96.2473 62.2719C95.7562 61.5471 94.8911 60.3312 94.3299 59.5829C93.7219 58.7879 93.3478 58.0864 93.418 57.8759C93.4881 57.6889 94.3299 56.4496 95.2652 55.1402C103.73 43.3786 109.342 31.1961 110.3 22.5444C110.441 21.2116 110.534 21.0245 111.212 20.6036C113.036 19.4812 114.977 16.839 115.632 14.5474C116.123 12.8872 116.123 9.61364 115.632 7.95345C114.907 5.49825 113.083 3.08981 110.838 1.64007C107.588 -0.44101 102.514 -0.557922 99.1702 1.38286C97.8841 2.10773 96.0602 3.81468 95.4289 4.82014C95.008 5.49825 94.8209 5.59178 93.4881 5.73208C91.1498 6.01267 87.8294 6.78431 85.1404 7.71963L82.6384 8.58479L81.4927 7.69624C77.3773 4.51617 71.6485 1.94405 65.9197 0.681374C63.0436 0.0734177 54.9297 -0.113647 51.9133 0.377396ZM61.1963 4.09528C66.2003 4.39925 72.1161 6.41019 76.8862 9.42657L78.336 10.3385L75.3664 11.8818C70.4092 14.4305 65.6391 17.3534 60.4714 21.0479C59.1854 21.9598 58.0162 22.6613 57.8759 22.6145C57.7356 22.5678 56.473 21.7026 55.07 20.6971C50.2999 17.2832 45.0621 14.1032 40.1751 11.648L37.6264 10.3853L39.1229 9.44996C42.6771 7.2052 47.073 5.40472 51.1183 4.58632C53.0123 4.1888 57.3381 3.81468 58.6008 3.93159C58.9983 3.95498 60.1441 4.02512 61.1963 4.09528ZM108.009 4.67985C109.272 5.33457 110.698 6.73754 111.376 8.02361C111.82 8.86539 111.914 9.37981 111.914 11.2504C111.914 13.7992 111.516 14.8046 109.926 16.3947C108.336 17.9847 107.331 18.3822 104.782 18.3822C102.911 18.3822 102.397 18.2887 101.555 17.8444C100.269 17.1429 98.8662 15.74 98.2115 14.4773C97.5801 13.2614 97.3697 10.6425 97.7438 9.21613C98.305 7.11167 100.456 4.86691 102.537 4.23557C103.8 3.83807 106.887 4.09528 108.009 4.67985ZM23.1757 9.84747C24.0175 9.98777 25.8648 10.4087 27.3145 10.8062L29.9334 11.531L28.203 13.542C22.825 19.9021 19.5514 27.6419 18.8499 35.6154L18.6862 37.4393H17.0962C16.2076 37.4393 15.3424 37.5094 15.1554 37.5796C14.5708 37.79 11.7181 30.8453 10.5256 26.2623C9.6604 22.9887 9.35642 18.4524 9.84746 16.3713C10.1982 14.8982 10.9932 13.238 11.8116 12.2559C12.4897 11.4375 14.4071 10.3619 15.9036 9.941C17.2365 9.59026 21.1414 9.5435 23.1757 9.84747ZM93.5583 11.5544C93.5583 17.5872 98.4453 22.4742 104.478 22.4742H106.255L106.091 23.62C105.881 25.2568 104.689 29.3488 103.706 31.8742C102.678 34.5398 99.8249 40.3855 98.305 42.981L97.1826 44.8751V39.3567C97.1592 34.5164 97.1125 33.511 96.6448 31.4299C95.1717 24.6722 92.2956 18.8265 87.8294 13.5654L86.1225 11.531L88.2503 10.9231C91.5006 10.0111 91.9682 9.89423 92.81 9.87085L93.5583 9.84747V11.5544ZM37.79 14.9449C42.49 17.2598 48.0317 20.627 53.5969 24.5553L54.6959 25.327L51.8432 27.6886C43.3552 34.7503 33.9552 44.197 26.6598 53.0825L25.818 54.1113L25.0931 52.2407C23.3862 47.8213 22.7081 44.1502 22.7081 39.2865C22.7081 30.0269 25.9817 21.8429 32.3886 15.0619C33.2771 14.1265 34.1189 13.3549 34.2592 13.3549C34.3995 13.3549 35.9895 14.0798 37.79 14.9449ZM83.4101 14.8046C88.0633 19.6215 90.9627 24.9528 92.5528 31.5936C93.2777 34.6333 93.5583 40.9233 93.0906 44.0099C92.7165 46.6288 91.8981 49.7855 90.9861 52.1705L90.2145 54.1347L89.3727 53.1058C82.5917 44.7348 73.0281 35.0776 64.7973 28.203L61.3834 25.3737L64.0958 23.4797C67.3928 21.1648 71.134 18.8031 74.3375 17.0026C76.9564 15.5295 81.3758 13.3549 81.7499 13.3549C81.8902 13.3549 82.6384 14.0096 83.4101 14.8046ZM60.5416 29.9334C69.24 36.9716 79.2947 47.0731 86.2862 55.7481C87.1981 56.8705 87.9464 57.9227 87.9464 58.0864C87.9464 58.5774 84.93 62.4122 83.0593 64.2829C80.7912 66.551 78.3594 68.3983 75.6703 69.9415C74.5246 70.5962 73.4256 71.3211 73.2853 71.5316C73.0748 71.7888 72.9813 72.9345 72.9813 75.2494V78.5932H69.24H65.4988V65.1013V51.586L68.1177 48.9671L70.7599 46.3248L69.2868 44.8517L67.8371 43.4019L64.7973 46.4651L61.7575 49.5283V64.049V78.5932H58.0162H54.275V64.049V49.5283L51.2352 46.4651L48.1954 43.4019L46.7457 44.8517L45.2726 46.3248L47.9148 48.9671L50.5337 51.586V65.1013V78.5932H46.7924H43.0512V75.2494C43.0512 72.9345 42.9577 71.7888 42.7706 71.5316C42.6069 71.3211 41.5313 70.5962 40.3622 69.9415C36.1766 67.5565 32.108 63.9321 29.3956 60.1441C28.203 58.4839 28.0627 58.1565 28.2732 57.7123C29.0682 56.0521 38.7955 45.2024 43.8228 40.3388C48.9671 35.3816 57.4317 28.0861 58.0396 28.0861C58.1799 28.0861 59.3023 28.9045 60.5416 29.9334ZM18.3121 41.695C18.5459 41.9054 18.7797 42.7472 18.9434 44.2203C19.1071 45.4362 19.2708 46.6755 19.3409 46.9561C19.6683 48.1954 16.6051 48.9203 15.0385 47.9616C11.9987 46.1143 13.3081 41.4144 16.8857 41.4144C17.4703 41.4144 18.1016 41.5547 18.3121 41.695ZM27.7588 64.5635C30.5413 67.9072 34.2358 71.0873 37.8134 73.1684L39.3099 74.0335V76.3017V78.5932H38.6786C37.79 78.5932 36.5975 79.3648 36.0363 80.2768C35.6388 80.9549 35.5687 81.4693 35.5687 84.2051C35.5687 86.9409 35.6388 87.4553 36.0363 88.1334C36.5975 89.0454 37.79 89.817 38.6786 89.817C39.2632 89.817 39.3099 89.8871 39.3099 90.7523C39.3099 91.6175 39.2632 91.6876 38.6786 91.6876C37.79 91.6876 36.5975 92.4593 36.0363 93.3712C35.6388 94.0493 35.5687 94.5637 35.5687 97.2528C35.5687 99.6144 35.6622 100.526 35.9428 101.064C36.1298 101.462 36.2701 101.812 36.2234 101.859C36.0363 102.023 32.4587 103.496 30.4244 104.244C28.1095 105.086 23.924 106.185 23.012 106.185C22.4976 106.185 22.4742 106.091 22.4742 104.455C22.4742 98.4453 17.5872 93.5583 11.5544 93.5583C9.89423 93.5583 9.84746 93.5349 9.84746 92.9971C9.84746 91.4538 11.3907 86.2628 13.0275 82.3812C15.1554 77.2838 19.4812 69.7311 23.4563 64.1192L25.3503 61.4302L25.7245 61.9913C25.9349 62.3187 26.8468 63.4645 27.7588 64.5635ZM92.2956 63.6749L93.6284 65.5923L93.2075 66.2938C92.015 68.3047 91.8045 68.9127 91.7344 70.7599C91.5941 74.0335 93.0204 76.5355 95.7796 77.8917C96.7617 78.3828 97.2995 78.4763 99.1234 78.4763H101.275L102.35 80.9315C104.946 86.8708 106.162 91.1498 106.349 95.2418C106.512 98.5154 106.208 100.363 105.18 102.28C104.338 103.917 103.519 104.618 101.508 105.577C100.105 106.232 99.7313 106.302 97.0657 106.372C93.5816 106.489 90.7991 105.998 86.4732 104.525C84.2285 103.777 80.1131 102.116 79.8091 101.859C79.7623 101.812 79.9026 101.462 80.0897 101.064C80.3703 100.526 80.4638 99.6144 80.4638 97.2528C80.4638 94.5637 80.3937 94.0493 79.9962 93.3712C79.435 92.4593 78.2424 91.6876 77.3773 91.6876C76.7693 91.6876 76.7226 91.6175 76.7226 90.7523C76.7226 89.8871 76.7693 89.817 77.3773 89.817C78.2424 89.817 79.435 89.0454 79.9962 88.1334C80.3937 87.4553 80.4638 86.9409 80.4638 84.2051C80.4638 81.4693 80.3937 80.9549 79.9962 80.2768C79.435 79.3648 78.2424 78.5932 77.3773 78.5932H76.7226V76.3017V74.0335L78.2191 73.1684C82.0305 70.9236 87.1981 66.3172 89.5598 62.9968C90.1443 62.2018 90.6822 61.5938 90.7757 61.664C90.8692 61.7107 91.5473 62.6227 92.2956 63.6749ZM100.994 68.0709C104.034 69.9181 102.724 74.6181 99.1702 74.6181C95.616 74.6181 94.3065 69.9181 97.3463 68.0709C98.3518 67.4629 99.9886 67.4629 100.994 68.0709ZM76.7226 84.2051V86.0757H58.0162H39.3099V84.2051V82.3345H58.0162H76.7226V84.2051ZM72.9813 90.7523V91.6876H58.0162H43.0512V90.7523V89.817H58.0162H72.9813V90.7523ZM76.7226 97.2995V99.1702H58.0162H39.3099V97.2995V95.4289H58.0162H76.7226V97.2995ZM14.4773 98.2115C15.74 98.8662 17.1663 100.269 17.8444 101.555C18.2887 102.397 18.3822 102.911 18.3822 104.782C18.3822 107.331 17.9847 108.336 16.3947 109.926C14.8046 111.516 13.7992 111.914 11.2504 111.914C9.37981 111.914 8.86538 111.82 8.0236 111.376C6.73754 110.675 5.33456 109.272 4.67984 108.009C4.0485 106.793 3.83806 104.174 4.21218 102.748C4.77337 100.643 6.9246 98.3985 9.00568 97.7672C10.2684 97.3697 13.3549 97.6269 14.4773 98.2115ZM68.6321 104.127C67.2759 108.781 62.9033 112.031 58.0162 112.031C53.1292 112.031 48.7566 108.781 47.4004 104.127L47.0497 102.911H58.0162H68.9828L68.6321 104.127Z" fill="white"/>
</svg>
