<svg width="115" height="115" viewBox="0 0 115 115" fill="none" xmlns="http://www.w3.org/2000/svg">
<path d="M89.9641 0.42495C89.2452 1.14385 89.4249 1.95262 90.8402 4.40138C91.8062 6.06384 92.0983 6.73781 91.9186 6.89507C91.7613 7.0074 83.9657 11.523 74.5751 16.9372C65.1844 22.3515 57.3214 26.912 57.1192 27.1142C56.243 27.8556 56.6025 28.8216 59.4781 33.764C62.5334 39.021 62.7806 39.2457 64.3307 38.5043C64.7575 38.3021 72.7553 33.7191 82.0786 28.3273C91.4019 22.958 99.0627 18.6446 99.1076 18.757C99.1525 18.8693 99.7591 19.9252 100.478 21.0934C101.938 23.5197 102.59 24.0139 103.691 23.5422C104.275 23.3175 104.949 22.0819 109.397 13.2079C112.183 7.6589 114.452 2.94111 114.452 2.69398C114.452 2.44686 114.227 1.99755 113.957 1.66056L113.441 1.09892L103.443 0.537277C91.0199 -0.159161 90.5482 -0.159161 89.9641 0.42495ZM102.814 3.95206L109.914 4.33398L106.454 11.2534C104.544 15.0501 102.949 18.1728 102.882 18.1728C102.837 18.1728 102.433 17.5213 101.961 16.7126C101.511 15.9038 100.995 15.0951 100.815 14.9153C99.9388 14.0167 99.6243 14.174 81.6068 24.5756C72.0814 30.0797 64.2184 34.5728 64.151 34.5728C63.9038 34.5728 60.8036 29.0687 60.9384 28.9115C61.0282 28.8216 68.8238 24.2835 78.2819 18.8468C87.7399 13.3877 95.6479 8.71479 95.8725 8.46767C96.4566 7.77123 96.3443 7.02987 95.3334 5.23261L94.4347 3.57015H95.0638C95.4008 3.57015 98.8829 3.72741 102.814 3.95206Z" fill="white"/>
<path d="M23.2409 27.0693C11.6936 29.1811 2.68483 38.055 0.393325 49.5575C-0.145852 52.2758 -0.123386 57.8024 0.415791 60.3635C1.6514 66.1821 4.1451 70.81 8.27879 74.8988C11.6037 78.2237 14.9062 80.2456 19.3768 81.7508C24.7237 83.5481 31.4409 83.5481 36.9001 81.7733L38.7423 81.1667V89.9733C38.7423 98.308 38.7647 98.8023 39.1691 99.2965L39.596 99.8357H48.2902H56.9844L57.5236 99.2067L58.0628 98.5776V82.9864V67.3952L57.5461 66.7887C57.0967 66.2719 56.7822 66.1596 55.6365 66.0698C54.8726 66.0248 54.2436 65.9574 54.2436 65.935C54.2436 65.89 54.5132 65.1262 54.8277 64.2051C56.7822 58.5662 56.8272 51.8265 54.985 46.1427C52.0195 37.0216 44.516 29.9674 35.1927 27.5636C32.9012 26.9794 32.07 26.8896 28.8574 26.7997C26.1615 26.7548 24.6338 26.8222 23.2409 27.0693ZM31.1039 30.3044C34.002 30.6863 36.2935 31.3827 39.0793 32.7756C45.8414 36.1455 50.2672 41.672 52.2666 49.198C52.6935 50.8155 52.7609 51.6468 52.7609 55.0166C52.7384 59.3525 52.5137 60.6331 51.0535 64.295L50.3121 66.1371L49.2338 66.2045L48.1554 66.2719L48.762 65.0813C50.2447 62.1832 51.0984 58.409 51.0984 54.9043C51.0984 39.8523 37.0349 28.9564 22.4097 32.6633C18.2536 33.7192 14.8388 35.7186 11.6711 38.9537C8.52591 42.1438 6.504 45.963 5.60537 50.501C5.02126 53.3542 5.22345 58.4763 6.03222 61.1947C8.57084 69.6867 15.0859 75.6851 23.8026 77.5048C25.8694 77.9316 30.6322 77.8867 32.9012 77.3925C34.4738 77.0779 36.5406 76.3815 38.4727 75.5278C38.6973 75.4379 38.7647 75.6401 38.6973 76.3815L38.6299 77.37L36.8327 78.0889C33.9121 79.2347 31.688 79.6166 27.8464 79.5941C24.1171 79.5716 21.8031 79.0999 18.5007 77.7295C14.9062 76.2242 10.7949 73.0341 8.39111 69.8665C6.93084 67.9344 4.95386 63.9355 4.27989 61.5092C3.2914 58.0046 3.13414 53.2643 3.92044 49.7372C6.63879 37.2687 18.6355 28.6868 31.1039 30.3044ZM32.6316 35.9208C39.6634 37.6057 45.145 43.02 47.077 50.1865C47.459 51.6018 47.5713 52.6128 47.5713 54.9043C47.5713 58.4988 47.122 60.4309 45.482 63.6884L44.3362 65.9799L41.9549 66.0698C38.8771 66.1821 38.7423 66.2944 38.7423 69.3048V71.4166L36.6754 72.4051C32.0924 74.6292 26.5883 75.0111 22.0278 73.4385C13.6256 70.5629 8.21139 62.61 8.70563 53.826C9.15495 45.3788 15.1084 38.1449 23.3083 36.0331C26.0716 35.3142 29.9133 35.2693 32.6316 35.9208ZM54.4683 82.9864V96.3535H48.2902H42.1121V82.9864V69.6193H48.2902H54.4683V82.9864Z" fill="white"/>
<path d="M26.8579 38.0775C26.4985 38.5492 26.3861 38.9986 26.3861 40.0769V41.4698L25.3752 41.8742C23.7352 42.4807 22.2974 43.7613 21.4437 45.3788C20.0059 48.0747 20.2979 51.9613 22.0503 53.9158C23.1286 55.1065 24.4766 55.758 27.3072 56.4769C31.1938 57.4654 32.2497 58.3865 32.2497 60.7229C32.2497 62.0708 32.025 62.6549 31.1264 63.621C30.2952 64.5421 29.3741 64.9464 28.2059 64.9689C26.0716 64.9914 24.2744 63.3963 23.9823 61.2171C23.7352 59.2626 22.4322 58.5212 21.1067 59.5547C20.5226 60.004 20.5001 60.1163 20.59 61.5092C20.8146 64.2949 22.567 66.7662 25.1056 67.822L26.3861 68.3612V69.6642C26.3861 71.6861 26.813 72.3152 28.2059 72.3152C29.3965 72.3152 29.8009 71.7535 29.9357 69.8889L30.0256 68.3388L31.2163 67.8445C32.7215 67.2155 34.2716 65.6878 35.0804 64.0478C35.642 62.9021 35.7094 62.5426 35.6869 60.633C35.6869 58.1169 35.1253 56.5667 33.8448 55.421C32.7889 54.4999 31.7554 54.073 28.6327 53.2193C25.6672 52.4106 24.7911 51.8489 24.2519 50.4111C23.2409 47.7826 25.3078 44.8396 28.1609 44.8621C28.7675 44.8846 29.5538 45.0194 29.9133 45.2216C31.059 45.8057 32.2272 47.3333 32.2272 48.2095C32.2272 50.3662 33.9795 51.4895 35.305 50.164C35.8442 49.6248 35.8667 49.49 35.7319 48.2095C35.6645 47.4457 35.3275 46.2999 35.013 45.6484C34.339 44.2331 32.3845 42.3909 31.0141 41.8742L30.0481 41.4923L29.9357 39.9421C29.8009 38.0325 29.3965 37.4934 28.1609 37.4934C27.5094 37.4934 27.2174 37.6282 26.8579 38.0775Z" fill="white"/>
<path d="M92.9969 29.9673L92.4353 30.5065V64.5644C92.4353 86.3562 92.5252 98.7797 92.66 99.0493C92.7723 99.274 93.1991 99.566 93.5811 99.7008C94.5471 100.038 109.622 100.038 110.565 99.7233C110.947 99.5885 111.351 99.229 111.509 98.9145C111.688 98.5101 111.756 89.2992 111.756 64.4297V30.5065L111.194 29.9673L110.655 29.4056H102.096H93.5361L92.9969 29.9673ZM108.161 64.5644V96.3534H101.983H95.8052V64.5644V32.7755H101.983H108.161V64.5644Z" fill="white"/>
<path d="M66.1279 48.2544L65.5887 48.6813V73.753V98.8023L66.1055 99.319L66.6222 99.8357H75.2715H83.9432L84.3701 99.2965C84.7745 98.7798 84.7969 98.0609 84.7969 73.753C84.7969 49.0183 84.7969 48.7262 84.3476 48.2769C83.9208 47.8501 83.6062 47.8276 75.2715 47.8276C67.1164 47.8276 66.6222 47.8501 66.1279 48.2544ZM81.4271 73.7755V96.3535H75.249H69.0709V73.7755V51.1975H75.249H81.4271V73.7755Z" fill="white"/>
<path d="M12.2552 85.9294C11.8059 86.5135 11.7834 86.8056 11.7834 92.5568V98.5776L12.3226 99.2067L12.8618 99.8357H21.556H30.2502L30.6771 99.2965C31.0815 98.8023 31.1039 98.353 31.1039 92.5119C31.1039 86.536 31.0815 86.2215 30.6546 85.7946C30.2278 85.3678 29.9133 85.3453 21.4662 85.3453H12.7045L12.2552 85.9294ZM27.7341 92.5343V96.3535H21.556H15.378V92.5343V88.7152H21.556H27.7341V92.5343Z" fill="white"/>
<path d="M11.6936 104.711C11.1769 105.452 11.1769 113.764 11.6936 114.506L12.0305 115H61.3877C88.5263 115 110.857 114.91 110.992 114.82C111.643 114.393 111.756 113.562 111.756 109.541C111.756 105.699 111.733 105.362 111.284 104.801L110.835 104.216H61.4326H12.0305L11.6936 104.711ZM108.161 109.608V111.63H61.4326H14.704V109.608V107.586H61.4326H108.161V109.608Z" fill="white"/>
</svg>
